<svg width="60" height="68" viewBox="0 0 60 68" fill="none" xmlns="http://www.w3.org/2000/svg">
<path d="M30 67.3333C26.3333 67.3333 22.7083 66.6666 19.125 65.3333C15.5417 64 12.3333 62.25 9.5 60.0833C6.66667 57.9166 4.375 55.4722 2.625 52.75C0.875 50.0277 0 47.25 0 44.4166V36.0833L11.25 44.5L6.41667 49.3333C8.13889 52.5555 11.0833 55.4305 15.25 57.9583C19.4167 60.4861 23.5 61.8888 27.5 62.1666V29.8333H16.6667V24.8333H27.5V18.6666C25.3889 17.8888 23.75 16.7222 22.5833 15.1666C21.4167 13.6111 20.8333 11.8333 20.8333 9.83329C20.8333 7.27774 21.7361 5.11107 23.5417 3.33329C25.3472 1.55551 27.5 0.666626 30 0.666626C32.5556 0.666626 34.7222 1.55551 36.5 3.33329C38.2778 5.11107 39.1667 7.27774 39.1667 9.83329C39.1667 11.8333 38.5833 13.6111 37.4167 15.1666C36.25 16.7222 34.6111 17.8888 32.5 18.6666V24.8333H43.3333V29.8333H32.5V62.1666C36.5 61.8888 40.5833 60.4861 44.75 57.9583C48.9167 55.4305 51.8611 52.5555 53.5833 49.3333L48.75 44.5L60 36.0833V44.4166C60 47.25 59.125 50.0277 57.375 52.75C55.625 55.4722 53.3333 57.9166 50.5 60.0833C47.6667 62.25 44.4583 64 40.875 65.3333C37.2917 66.6666 33.6667 67.3333 30 67.3333ZM30 14C31.1667 14 32.1528 13.5833 32.9583 12.75C33.7639 11.9166 34.1667 10.9444 34.1667 9.83329C34.1667 8.66663 33.7639 7.68051 32.9583 6.87496C32.1528 6.0694 31.1667 5.66663 30 5.66663C28.8889 5.66663 27.9167 6.0694 27.0833 6.87496C26.25 7.68051 25.8333 8.66663 25.8333 9.83329C25.8333 10.9444 26.25 11.9166 27.0833 12.75C27.9167 13.5833 28.8889 14 30 14Z" fill="#9E122E"/>
</svg>
