<svg width="68" height="60" viewBox="0 0 68 60" fill="none" xmlns="http://www.w3.org/2000/svg">
<path d="M5.77741 60C4.27741 60 2.97658 59.4492 1.87491 58.3475C0.773246 57.2453 0.222412 55.9442 0.222412 54.4442V5.55583C0.222412 4.05583 0.773246 2.75472 1.87491 1.6525C2.97658 0.550835 4.27741 0 5.77741 0H62.2224C63.7224 0 65.0233 0.550835 66.1249 1.6525C67.2266 2.75472 67.7774 4.05583 67.7774 5.55583V54.4442C67.7774 55.9442 67.2266 57.2453 66.1249 58.3475C65.0233 59.4492 63.7224 60 62.2224 60H5.77741ZM5.77741 54.4442H62.2224V5.55583H5.77741V54.4442ZM10.6666 46.6667H27.3333V40H10.6666V46.6667ZM42.4999 40L58.9999 23.5L54.2499 18.75L42.4999 30.5833L37.7499 25.8333L33.0833 30.5833L42.4999 40ZM10.6666 33.3333H27.3333V26.6667H10.6666V33.3333ZM10.6666 20H27.3333V13.3333H10.6666V20Z" fill="#9E122E"/>
</svg>
