<svg width="80" height="40" viewBox="0 0 80 40" fill="none" xmlns="http://www.w3.org/2000/svg">
<path d="M0 40V35.3058C0 33.0808 1.17583 31.27 3.5275 29.8733C5.87972 28.4761 8.97 27.7775 12.7983 27.7775C13.49 27.7775 14.1547 27.7914 14.7925 27.8192C15.4308 27.8469 16.0556 27.91 16.6667 28.0083C16.1111 29.04 15.6944 30.0986 15.4167 31.1842C15.1389 32.2703 15 33.4033 15 34.5833V40H0ZM20 40V34.5833C20 32.8056 20.4861 31.1806 21.4583 29.7083C22.4306 28.2361 23.8056 26.9444 25.5833 25.8333C27.3611 24.7222 29.4861 23.8889 31.9583 23.3333C34.4306 22.7778 37.1111 22.5 40 22.5C42.9444 22.5 45.6528 22.7778 48.125 23.3333C50.5972 23.8889 52.7222 24.7222 54.5 25.8333C56.2778 26.9444 57.6389 28.2361 58.5833 29.7083C59.5278 31.1806 60 32.8056 60 34.5833V40H20ZM65 40V34.5833C65 33.3661 64.875 32.2192 64.625 31.1425C64.375 30.0658 63.9814 29.0225 63.4442 28.0125C64.0553 27.9114 64.6742 27.8469 65.3008 27.8192C65.9281 27.7914 66.5686 27.7775 67.2225 27.7775C71.0558 27.7775 74.1436 28.4631 76.4858 29.8342C78.8286 31.2053 80 33.0292 80 35.3058V40H65ZM25.6942 34.4442H54.3333V34.1108C54.1483 32.3703 52.6992 30.9258 49.9858 29.7775C47.2731 28.6297 43.9444 28.0558 40 28.0558C36.0556 28.0558 32.7269 28.6297 30.0142 29.7775C27.3008 30.9258 25.8608 32.3889 25.6942 34.1667V34.4442ZM12.7533 25C11.0844 25 9.65278 24.4017 8.45833 23.205C7.26389 22.0083 6.66667 20.5697 6.66667 18.8892C6.66667 17.1853 7.265 15.7408 8.46167 14.5558C9.65833 13.3703 11.0969 12.7775 12.7775 12.7775C14.4814 12.7775 15.9258 13.3703 17.1108 14.5558C18.2964 15.7408 18.8892 17.1933 18.8892 18.9133C18.8892 20.5822 18.2964 22.0139 17.1108 23.2083C15.9258 24.4028 14.4733 25 12.7533 25ZM67.1983 25C65.5289 25 64.0969 24.4017 62.9025 23.205C61.7081 22.0083 61.1108 20.5697 61.1108 18.8892C61.1108 17.1853 61.7094 15.7408 62.9067 14.5558C64.1033 13.3703 65.5419 12.7775 67.2225 12.7775C68.9258 12.7775 70.3703 13.3703 71.5558 14.5558C72.7408 15.7408 73.3333 17.1933 73.3333 18.9133C73.3333 20.5822 72.7408 22.0139 71.5558 23.2083C70.3703 24.4028 68.9178 25 67.1983 25ZM40 20C37.2222 20 34.8611 19.0278 32.9167 17.0833C30.9722 15.1389 30 12.7778 30 10C30 7.16667 30.9722 4.79167 32.9167 2.875C34.8611 0.958333 37.2222 0 40 0C42.8333 0 45.2083 0.958333 47.125 2.875C49.0417 4.79167 50 7.16667 50 10C50 12.7778 49.0417 15.1389 47.125 17.0833C45.2083 19.0278 42.8333 20 40 20ZM40.0192 14.4442C41.2842 14.4442 42.3381 14.0164 43.1808 13.1608C44.0231 12.3053 44.4442 11.2453 44.4442 9.98083C44.4442 8.71584 44.0203 7.66195 43.1725 6.81917C42.3242 5.97695 41.2731 5.55583 40.0192 5.55583C38.7658 5.55583 37.7086 5.97972 36.8475 6.8275C35.9864 7.67583 35.5558 8.72695 35.5558 9.98083C35.5558 11.2342 35.9836 12.2914 36.8392 13.1525C37.6947 14.0136 38.7547 14.4442 40.0192 14.4442Z" fill="#9E122E"/>
</svg>
