<svg width="74" height="68" viewBox="0 0 74 68" fill="none" xmlns="http://www.w3.org/2000/svg">
<path d="M36.5833 62.3333C36.861 62.3333 37.1805 62.2639 37.5416 62.125C37.9027 61.9861 38.1944 61.8056 38.4166 61.5833L66.4999 33.4167C67.2221 32.6944 67.7638 31.8703 68.1249 30.9442C68.486 30.0186 68.6666 29.0928 68.6666 28.1667C68.6666 27.2222 68.486 26.2778 68.1249 25.3333C67.7638 24.3889 67.2221 23.5556 66.4999 22.8333L51.4999 7.83333C50.7777 7.11111 49.9444 6.56944 48.9999 6.20833C48.0555 5.84722 47.111 5.66667 46.1666 5.66667C45.2405 5.66667 44.3146 5.84722 43.3891 6.20833C42.463 6.56944 41.6388 7.11111 40.9166 7.83333L39.4166 9.33333L46.1666 16.1667C46.8888 16.9444 47.5277 17.8472 48.0833 18.875C48.6388 19.9028 48.9166 21.0278 48.9166 22.25C48.9166 24.3611 48.0971 26.2222 46.4583 27.8333C44.8194 29.4444 42.9444 30.25 40.8333 30.25C39.4444 30.25 38.2916 30.0417 37.3749 29.625C36.4583 29.2083 35.6196 28.6156 34.8591 27.8467L28.7499 21.75L13.6666 36.8333C13.3888 37.1111 13.1944 37.4036 13.0833 37.7108C12.9721 38.0175 12.9166 38.3464 12.9166 38.6975C12.9166 39.3992 13.1527 39.9861 13.6249 40.4583C14.0971 40.9306 14.6852 41.1667 15.3891 41.1667C15.7408 41.1667 16.0694 41.0833 16.3749 40.9167C16.6805 40.75 16.9444 40.5556 17.1666 40.3333L28.6666 28.8333L32.1666 32.3333L20.7499 43.75C20.4721 44.0278 20.2777 44.3333 20.1666 44.6667C20.0555 45 19.9999 45.3333 19.9999 45.6667C19.9999 46.3333 20.2499 46.9167 20.7499 47.4167C21.2499 47.9167 21.8333 48.1667 22.4999 48.1667C22.8333 48.1667 23.1527 48.0972 23.4583 47.9583C23.7638 47.8194 24.0277 47.6389 24.2499 47.4167L35.7499 35.9167L39.2499 39.4167L27.8333 50.8333C27.611 51.0556 27.4305 51.3425 27.2916 51.6942C27.1527 52.0464 27.0833 52.3983 27.0833 52.75C27.0833 53.4167 27.3333 54 27.8333 54.5C28.3333 55 28.9166 55.25 29.5833 55.25C29.9166 55.25 30.2221 55.1944 30.4999 55.0833C30.7777 54.9722 31.0555 54.7778 31.3333 54.5L42.8333 43L46.3333 46.5L34.8333 58C34.5555 58.2778 34.361 58.5833 34.2499 58.9167C34.1388 59.25 34.0833 59.5556 34.0833 59.8333C34.0833 60.6111 34.3055 61.2222 34.7499 61.6667C35.1944 62.1111 35.8055 62.3333 36.5833 62.3333ZM36.5883 67.3333C34.7516 67.3333 33.111 66.6528 31.6666 65.2917C30.2221 63.9306 29.361 62.2467 29.0833 60.24C27.1944 59.9689 25.611 59.1944 24.3333 57.9167C23.0555 56.6389 22.2777 55.0556 21.9999 53.1667C20.111 52.8889 18.5416 52.0972 17.2916 50.7917C16.0416 49.4861 15.2777 47.9167 14.9999 46.0833C12.9444 45.8056 11.2499 44.9722 9.91659 43.5833C8.58325 42.1944 7.91659 40.5278 7.91659 38.5833C7.91659 37.6389 8.10325 36.6931 8.47659 35.7458C8.85047 34.7986 9.38603 33.9667 10.0833 33.25L28.7499 14.5833L37.9166 23.75C38.361 24.1944 38.8424 24.5417 39.3608 24.7917C39.8796 25.0417 40.3983 25.1667 40.9166 25.1667C41.6388 25.1667 42.3194 24.8472 42.9583 24.2083C43.5971 23.5694 43.9166 22.8847 43.9166 22.1542C43.9166 21.8292 43.8194 21.4583 43.6249 21.0417C43.4305 20.625 43.111 20.1944 42.6666 19.75L30.7499 7.83333C30.0277 7.11111 29.1944 6.56944 28.2499 6.20833C27.3055 5.84722 26.361 5.66667 25.4166 5.66667C24.4905 5.66667 23.5646 5.84722 22.6391 6.20833C21.713 6.56944 20.8905 7.10722 20.1716 7.82167L7.49992 20.5C6.72214 21.2778 6.18047 22.0972 5.87492 22.9583C5.56936 23.8194 5.38881 24.7917 5.33325 25.875C5.2777 26.9583 5.48603 28.0139 5.95825 29.0417C6.43047 30.0694 6.99992 31 7.66659 31.8333L4.08325 35.4167C2.97214 34.1944 2.06936 32.7222 1.37492 31C0.680474 29.2778 0.333252 27.5278 0.333252 25.75C0.333252 24.0833 0.652696 22.4861 1.29159 20.9583C1.93047 19.4306 2.83325 18.0833 3.99992 16.9167L16.5833 4.33333C17.8055 3.11111 19.1885 2.20833 20.7324 1.625C22.2769 1.04167 23.8602 0.75 25.4824 0.75C27.1052 0.75 28.6805 1.04167 30.2083 1.625C31.736 2.20833 33.111 3.11111 34.3333 4.33333L35.8333 5.83333L37.3333 4.33333C38.5555 3.11111 39.9385 2.20833 41.4824 1.625C43.0269 1.04167 44.6102 0.75 46.2324 0.75C47.8552 0.75 49.4305 1.04167 50.9583 1.625C52.486 2.20833 53.861 3.11111 55.0833 4.33333L69.9999 19.25C71.2221 20.4722 72.1388 21.8619 72.7499 23.4192C73.361 24.9769 73.6666 26.5603 73.6666 28.1692C73.6666 29.7786 73.361 31.3472 72.7499 32.875C72.1388 34.4028 71.2221 35.7778 69.9999 37L41.9166 65.0833C41.1944 65.8056 40.3741 66.3611 39.4558 66.75C38.5374 67.1389 37.5816 67.3333 36.5883 67.3333Z" fill="#9E122E"/>
</svg>
