<svg width="24" height="46" viewBox="0 0 24 46" fill="none" xmlns="http://www.w3.org/2000/svg">
<path d="M9.5625 45.5V40.125C7.35417 39.625 5.44792 38.6667 3.84375 37.25C2.23958 35.8333 1.0625 33.8333 0.3125 31.25L4.9375 29.375C5.5625 31.375 6.48958 32.8958 7.71875 33.9375C8.94792 34.9792 10.5625 35.5 12.5625 35.5C14.2708 35.5 15.7188 35.1146 16.9062 34.3438C18.0938 33.5729 18.6875 32.375 18.6875 30.75C18.6875 29.2917 18.2292 28.1354 17.3125 27.2812C16.3958 26.4271 14.2708 25.4583 10.9375 24.375C7.35417 23.25 4.89583 21.9062 3.5625 20.3438C2.22917 18.7812 1.5625 16.875 1.5625 14.625C1.5625 11.9167 2.4375 9.8125 4.1875 8.3125C5.9375 6.8125 7.72917 5.95833 9.5625 5.75V0.5H14.5625V5.75C16.6458 6.08333 18.3646 6.84375 19.7188 8.03125C21.0729 9.21875 22.0625 10.6667 22.6875 12.375L18.0625 14.375C17.5625 13.0417 16.8542 12.0417 15.9375 11.375C15.0208 10.7083 13.7708 10.375 12.1875 10.375C10.3542 10.375 8.95833 10.7812 8 11.5938C7.04167 12.4062 6.5625 13.4167 6.5625 14.625C6.5625 16 7.1875 17.0833 8.4375 17.875C9.6875 18.6667 11.8542 19.5 14.9375 20.375C17.8125 21.2083 19.9896 22.5312 21.4688 24.3438C22.9479 26.1562 23.6875 28.25 23.6875 30.625C23.6875 33.5833 22.8125 35.8333 21.0625 37.375C19.3125 38.9167 17.1458 39.875 14.5625 40.25V45.5H9.5625Z" fill="#9E122E"/>
</svg>
