<svg width="56" height="40" viewBox="0 0 56 40" fill="none" xmlns="http://www.w3.org/2000/svg">
<path d="M13 40C10.9167 40 9.14583 39.2708 7.6875 37.8125C6.22917 36.3542 5.5 34.5833 5.5 32.5H0.5V5C0.5 3.625 0.989583 2.44792 1.96875 1.46875C2.94792 0.489583 4.125 0 5.5 0H40.5V10H48L55.5 20V32.5H50.5C50.5 34.5833 49.7708 36.3542 48.3125 37.8125C46.8542 39.2708 45.0833 40 43 40C40.9167 40 39.1458 39.2708 37.6875 37.8125C36.2292 36.3542 35.5 34.5833 35.5 32.5H20.5C20.5 34.5833 19.7708 36.3542 18.3125 37.8125C16.8542 39.2708 15.0833 40 13 40ZM13 35C13.7083 35 14.3021 34.7604 14.7812 34.2812C15.2604 33.8021 15.5 33.2083 15.5 32.5C15.5 31.7917 15.2604 31.1979 14.7812 30.7188C14.3021 30.2396 13.7083 30 13 30C12.2917 30 11.6979 30.2396 11.2188 30.7188C10.7396 31.1979 10.5 31.7917 10.5 32.5C10.5 33.2083 10.7396 33.8021 11.2188 34.2812C11.6979 34.7604 12.2917 35 13 35ZM5.5 27.5H7.5C8.20833 26.75 9.02083 26.1458 9.9375 25.6875C10.8542 25.2292 11.875 25 13 25C14.125 25 15.1458 25.2292 16.0625 25.6875C16.9792 26.1458 17.7917 26.75 18.5 27.5H35.5V5H5.5V27.5ZM43 35C43.7083 35 44.3021 34.7604 44.7812 34.2812C45.2604 33.8021 45.5 33.2083 45.5 32.5C45.5 31.7917 45.2604 31.1979 44.7812 30.7188C44.3021 30.2396 43.7083 30 43 30C42.2917 30 41.6979 30.2396 41.2188 30.7188C40.7396 31.1979 40.5 31.7917 40.5 32.5C40.5 33.2083 40.7396 33.8021 41.2188 34.2812C41.6979 34.7604 42.2917 35 43 35ZM40.5 22.5H51.125L45.5 15H40.5V22.5Z" fill="#9E122E"/>
</svg>
